<?xml version="1.0" encoding="UTF-8" standalone="no"?>
<!-- Created with Inkscape (http://www.inkscape.org/) -->

<svg
   xmlns:dc="http://purl.org/dc/elements/1.1/"
   xmlns:cc="http://creativecommons.org/ns#"
   xmlns:rdf="http://www.w3.org/1999/02/22-rdf-syntax-ns#"
   xmlns:svg="http://www.w3.org/2000/svg"
   xmlns="http://www.w3.org/2000/svg"
   xmlns:sodipodi="http://sodipodi.sourceforge.net/DTD/sodipodi-0.dtd"
   xmlns:inkscape="http://www.inkscape.org/namespaces/inkscape"
   width="744.09448"
   height="1052.3622"
   id="svg2"
   version="1.1"
   inkscape:version="0.48.4 r9939"
   sodipodi:docname="carijo.svg">
  <defs
     id="defs4" />
  <sodipodi:namedview
     id="base"
     pagecolor="#ffffff"
     bordercolor="#666666"
     borderopacity="1.0"
     inkscape:pageopacity="1"
     inkscape:pageshadow="2"
     inkscape:zoom="0.58820054"
     inkscape:cx="372.04724"
     inkscape:cy="526.18109"
     inkscape:document-units="px"
     inkscape:current-layer="layer1"
     showgrid="false"
     inkscape:window-width="1317"
     inkscape:window-height="744"
     inkscape:window-x="49"
     inkscape:window-y="24"
     inkscape:window-maximized="1" />
  <metadata
     id="metadata7">
    <rdf:RDF>
      <cc:Work
         rdf:about="">
        <dc:format>image/svg+xml</dc:format>
        <dc:type
           rdf:resource="http://purl.org/dc/dcmitype/StillImage" />
        <dc:title />
      </cc:Work>
    </rdf:RDF>
  </metadata>
  <g
     inkscape:label="Layer 1"
     inkscape:groupmode="layer"
     id="layer1"
     transform="translate(0,4.372441e-5)">
    <g
       transform="matrix(0.26170009,0,0,0.26170009,2.6233155,-174.27704)"
       id="layer1-8"
       inkscape:label="Layer 1">
      <rect
         y="688.86884"
         x="81.571411"
         height="164.38254"
         width="236.85719"
         id="rect2995"
         style="fill:#000000;fill-opacity:1;fill-rule:nonzero;stroke:none" />
      <text
         sodipodi:linespacing="125%"
         id="text2989"
         y="924.91956"
         x="199.99438"
         style="font-size:72px;font-style:normal;font-variant:normal;font-weight:normal;font-stretch:normal;text-align:center;line-height:125%;letter-spacing:0px;word-spacing:0px;text-anchor:middle;fill:#000000;fill-opacity:1;stroke:none;font-family:Ubuntu;-inkscape-font-specification:Ubuntu"
         xml:space="preserve"><tspan
           y="924.91956"
           x="199.99438"
           id="tspan2991"
           sodipodi:role="line">ateliê ana</tspan><tspan
           id="tspan2993"
           y="1014.9196"
           x="199.99438"
           sodipodi:role="line">canestraro</tspan></text>
      <g
         transform="translate(-79.450742,498.03091)"
         id="g3769">
        <text
           xml:space="preserve"
           style="font-size:144px;font-style:normal;font-variant:normal;font-weight:normal;font-stretch:normal;line-height:125%;letter-spacing:0px;word-spacing:0px;fill:#ffffff;fill-opacity:1;stroke:none;font-family:Ubuntu;-inkscape-font-specification:Ubuntu"
           x="170.06474"
           y="316.08517"
           id="text2985"
           sodipodi:linespacing="125%"><tspan
             sodipodi:role="line"
             id="tspan2987"
             x="170.06474"
             y="316.08517">a |c</tspan></text>
        <text
           xml:space="preserve"
           style="font-size:72px;font-style:normal;font-variant:normal;font-weight:normal;font-stretch:normal;line-height:125%;letter-spacing:0px;word-spacing:0px;fill:#ffffff;fill-opacity:1;stroke:none;font-family:Ubuntu;-inkscape-font-specification:Ubuntu"
           x="239.85849"
           y="244.44102"
           id="text3765"
           sodipodi:linespacing="125%"><tspan
             sodipodi:role="line"
             id="tspan3767"
             x="239.85849"
             y="244.44102">a</tspan></text>
      </g>
      <rect
         y="937.57983"
         x="12.902879"
         height="13.743362"
         width="374.19424"
         id="rect3775"
         style="fill:#000000;fill-opacity:1;fill-rule:nonzero;stroke:none" />
    </g>
    <path
       style="fill:none;stroke:#000000;stroke-width:5;stroke-linecap:butt;stroke-linejoin:miter;stroke-miterlimit:4;stroke-opacity:1;stroke-dasharray:none"
       d="m 352.39396,731.40869 c -66.24064,-3.53567 -126.6098,-24.59873 -183.06396,-45.766 2.67297,59.8317 111.46462,259.39894 158.53285,285.21337 10.11977,6.5701 15.63636,10.27483 26.50788,1.81247 38.83229,-30.41245 130.70585,-178.75981 163.58844,-295.1022 -54.21703,22.34056 -109.45278,53.83185 -165.56521,53.84236 z"
       id="path3476"
       inkscape:connector-curvature="0"
       sodipodi:nodetypes="cccccc" />
    <path
       style="fill:none;stroke:#000000;stroke-width:5;stroke-linecap:butt;stroke-linejoin:miter;stroke-miterlimit:4;stroke-opacity:1;stroke-dasharray:none"
       d="m 130.05398,648.52517 c -90.550668,91.14125 143.47202,325.29021 163.74358,347.84906 46.28926,49.80857 60.97641,20.25447 80.59918,0.84841 C 474.59835,904.2025 606.82951,715.0857 586.49981,659.55452 550.8665,604.12491 475.35781,596.2064 418.51417,648.52517 366.19543,578.10694 289.27267,634.10215 275.13249,660.40294 239.58423,646.42221 201.40571,609.37485 130.05398,648.52517 z"
       id="path4254"
       inkscape:connector-curvature="0"
       sodipodi:nodetypes="ccccccc" />
    <path
       style="fill:none;stroke:#000000;stroke-width:5;stroke-linecap:round;stroke-linejoin:miter;stroke-miterlimit:4;stroke-opacity:1;stroke-dasharray:none;stroke-dashoffset:0"
       d="M 144.59804,666.96667 C 122.41261,628.90937 99.511119,557.17453 99.511119,499.10104 c 0,-116.14698 54.887911,-210.30271 122.595581,-210.30271 33.74857,0 91.47366,41.37823 111.94967,108.35636 23.7471,77.67813 7.29021,189.47006 -7.46004,245.50006"
       id="path4262"
       inkscape:connector-curvature="0"
       sodipodi:nodetypes="csssc" />
    <path
       sodipodi:type="arc"
       style="fill:none;stroke:#000000;stroke-width:11.78672123;stroke-linecap:round;stroke-linejoin:miter;stroke-miterlimit:4;stroke-opacity:1;stroke-dasharray:none;stroke-dashoffset:0"
       id="path4265"
       sodipodi:cx="2286"
       sodipodi:cy="484.36218"
       sodipodi:rx="46"
       sodipodi:ry="46"
       d="m 2332,484.36218 c 0,25.4051 -20.5949,46 -46,46 -25.4051,0 -46,-20.5949 -46,-46 0,-25.4051 20.5949,-46 46,-46 25.3261,0 45.8881,20.47177 45.9996,45.79762"
       sodipodi:start="0"
       sodipodi:end="6.2787857"
       sodipodi:open="true"
       transform="matrix(0.42420617,0,0,0.42420617,-682.72504,270.82803)" />
    <path
       sodipodi:type="arc"
       style="fill:none;stroke:#000000;stroke-width:11.78672123;stroke-linecap:round;stroke-linejoin:miter;stroke-miterlimit:4;stroke-opacity:1;stroke-dasharray:none;stroke-dashoffset:0"
       id="path4265-7"
       sodipodi:cx="2286"
       sodipodi:cy="484.36218"
       sodipodi:rx="46"
       sodipodi:ry="46"
       d="m 2332,484.36218 c 0,25.4051 -20.5949,46 -46,46 -25.4051,0 -46,-20.5949 -46,-46 0,-25.4051 20.5949,-46 46,-46 25.3261,0 45.8881,20.47177 45.9996,45.79762"
       sodipodi:start="0"
       sodipodi:end="6.2787857"
       sodipodi:open="true"
       transform="matrix(0.42420617,0,0,0.42420617,-554.61478,277.61533)" />
    <path
       style="fill:none;stroke:#000000;stroke-width:5;stroke-linecap:round;stroke-linejoin:miter;stroke-miterlimit:4;stroke-opacity:1;stroke-dasharray:none;stroke-dashoffset:0"
       d="m 368.87213,641.29268 c 2.41852,-31.27 -5.33164,-84.0014 -0.0347,-141.83281 11.64849,-127.17635 55.42092,-171.27575 112.41463,-171.27575 33.74857,0 100.80619,40.52981 121.2822,107.50795 23.7471,77.67813 -27.06808,166.52764 -41.81832,222.55764"
       id="path4262-6"
       inkscape:connector-curvature="0"
       sodipodi:nodetypes="csssc" />
    <path
       style="fill:none;stroke:#000000;stroke-width:5;stroke-linecap:butt;stroke-linejoin:miter;stroke-miterlimit:4;stroke-opacity:1;stroke-dasharray:none"
       d="m 323.10918,262.68086 c -23.69344,-4.88782 -51.42836,-23.84414 -103.35384,-7.09446 -26.86752,5.93091 -33.27535,17.47913 -98.64143,12.84001 -13.84174,-5.52354 -20.00043,-24.76333 -9.78147,-45.34635 16.81253,-12.79198 44.41863,-27.02402 64.73952,-28.76538 38.92677,-10.24571 46.59399,-1.89798 69.89099,-2.84699 -20.50856,-17.70149 -48.95221,-32.75624 -61.52565,-53.10446 -9.43965,-19.42047 -13.32176,-34.68782 5.69004,-42.796195 27.86762,-7.871222 55.2333,5.197375 75.94195,20.220065 13.84693,12.27922 28.39603,29.41368 36.34997,47.09094 l 10.01611,-73.119952 c 3.11837,-32.838024 19.41119,-63.391353 42.08605,-58.909494 0,0 26.29969,8.617747 31.08937,22.114004 8.44099,23.784854 2.09903,51.581662 -6.03264,75.474072 -3.89624,11.44797 -31.23138,34.89534 -19.77004,30.41833 79.44457,-31.03259 102.6462,-39.69637 154.16711,-30.29435 46.15392,8.42255 96.35723,33.42778 119.61954,74.17076 15.77864,27.63553 19.65524,58.69148 2.08249,95.44548 -11.6559,24.81762 -50.17321,43.79957 -104.45674,8.77095 -47.6841,-24.70266 -58.87256,-73.59204 -143.05227,-74.10809 -32.77522,-0.85352 -55.90613,21.17469 -65.05906,29.84111 z"
       id="path3190"
       inkscape:connector-curvature="0"
       sodipodi:nodetypes="ccccccccccccsasaacccc" />
    <path
       style="fill:none;stroke:#000000;stroke-width:5;stroke-linecap:butt;stroke-linejoin:miter;stroke-miterlimit:4;stroke-opacity:1;stroke-dasharray:none"
       d="m 571.54686,790.24459 c -15.95183,61.08826 -42.77991,102.05547 -32.62874,160.96848 6.88829,24.10902 15.95183,38.97322 30.45349,42.96118 14.32039,6.52575 27.55316,6.52575 38.06687,-4.89431 5.80067,-10.15117 6.16321,-15.95183 9.24481,-23.92775 13.59531,37.34181 29.36588,56.73781 45.68025,67.97661 20.84614,16.1331 41.69229,7.7946 56.01268,-2.1753 15.40802,-9.2448 18.30835,-40.24212 8.70099,-63.62606 -9.60735,-29.90968 -27.9157,-53.29361 -56.55649,-83.2033 -19.57725,-28.09697 -31.54112,-60.54445 -42.41736,-92.44811 -5.6194,5.43812 -18.85217,8.701 -27.19063,7.61337 -9.24481,-0.36254 -20.66487,-2.35652 -29.36587,-9.24481 z"
       id="path4544"
       inkscape:connector-curvature="0"
       sodipodi:nodetypes="cccccccccccc" />
    <text
       xml:space="preserve"
       style="font-size:56px;font-style:normal;font-variant:normal;font-weight:bold;font-stretch:normal;line-height:125%;letter-spacing:0px;word-spacing:0px;fill:#000000;fill-opacity:1;stroke:none;font-family:Ubuntu;-inkscape-font-specification:Ubuntu Bold"
       x="449.40375"
       y="48.743999"
       id="text4546"
       sodipodi:linespacing="125%"><tspan
         sodipodi:role="line"
         id="tspan4548"
         x="449.40375"
         y="48.743999">Galo Carijó</tspan></text>
    <path
       style="fill:none;stroke:#000000;stroke-width:5;stroke-linecap:butt;stroke-linejoin:miter;stroke-miterlimit:4;stroke-opacity:1;stroke-dasharray:10, 5;stroke-dashoffset:0"
       d="M 559.57699,658.36896 C 515.24023,618.33777 471.19786,623.13969 414.35422,675.45846 401.27454,657.8539 384.64861,645.4722 369.85884,641.23013 m -43.52091,1.21959 c -27.53805,8.48413 -48.2953,31.73611 -55.36539,44.88651 C 235.42428,673.3555 215.32216,628.27418 143.97043,667.4245"
       id="path4254-6"
       inkscape:connector-curvature="0"
       sodipodi:nodetypes="cccccc" />
  </g>
</svg>
