<?xml version="1.0" encoding="UTF-8" standalone="no"?>
<!-- Created with Inkscape (http://www.inkscape.org/) -->

<svg
   xmlns:dc="http://purl.org/dc/elements/1.1/"
   xmlns:cc="http://creativecommons.org/ns#"
   xmlns:rdf="http://www.w3.org/1999/02/22-rdf-syntax-ns#"
   xmlns:svg="http://www.w3.org/2000/svg"
   xmlns="http://www.w3.org/2000/svg"
   xmlns:sodipodi="http://sodipodi.sourceforge.net/DTD/sodipodi-0.dtd"
   xmlns:inkscape="http://www.inkscape.org/namespaces/inkscape"
   width="1052.3622"
   height="744.09448"
   id="svg2"
   version="1.1"
   inkscape:version="0.48.4 r9939"
   sodipodi:docname="caveira.svg">
  <defs
     id="defs4" />
  <sodipodi:namedview
     id="base"
     pagecolor="#ffffff"
     bordercolor="#666666"
     borderopacity="1.0"
     inkscape:pageopacity="1"
     inkscape:pageshadow="2"
     inkscape:zoom="0.80675647"
     inkscape:cx="558.32223"
     inkscape:cy="372.04724"
     inkscape:document-units="px"
     inkscape:current-layer="layer1"
     showgrid="false"
     inkscape:window-width="1317"
     inkscape:window-height="744"
     inkscape:window-x="49"
     inkscape:window-y="24"
     inkscape:window-maximized="1" />
  <metadata
     id="metadata7">
    <rdf:RDF>
      <cc:Work
         rdf:about="">
        <dc:format>image/svg+xml</dc:format>
        <dc:type
           rdf:resource="http://purl.org/dc/dcmitype/StillImage" />
        <dc:title />
      </cc:Work>
    </rdf:RDF>
  </metadata>
  <g
     inkscape:label="Layer 1"
     inkscape:groupmode="layer"
     id="layer1"
     transform="translate(0,-308.2677)">
    <g
       id="g3762">
      <path
         sodipodi:nodetypes="ccccccc"
         inkscape:connector-curvature="0"
         id="path3276"
         d="m 418.3818,786.77664 c 23.70667,-42.00005 63.78716,-89.6965 34.86495,-146.23908 -9.68471,-22.05961 -39.7073,-25.07264 -61.65931,-5.16518 -13.66619,14.84989 -17.97051,30.34542 -19.04659,45.84095 -26.0411,-20.5531 -64.34949,-24.96503 -81.02871,1.29129 -19.69225,30.56064 17.75529,64.67234 35.83341,76.18638 29.6506,14.92039 60.61958,19.29373 91.03625,28.08564 z"
         style="fill:none;stroke:#000000;stroke-width:5;stroke-linecap:butt;stroke-linejoin:miter;stroke-miterlimit:4;stroke-opacity:1;stroke-dasharray:none" />
      <path
         sodipodi:nodetypes="ccccccc"
         inkscape:connector-curvature="0"
         id="path3276-2"
         d="m 546.8065,785.43707 c 48.22645,-0.46945 109.57303,10.39307 144.07923,-42.92561 14.26184,-19.417 1.8599,-46.92385 -26.35647,-55.98111 -19.69347,-4.41034 -35.26515,-0.39021 -49.22272,6.42563 4.77895,-32.8288 -10.55441,-68.21081 -41.63265,-69.52728 -36.31241,-1.77366 -47.13023,47.71271 -48.06262,69.12584 1.90385,33.13837 13.60092,62.14497 21.19523,92.88253 z"
         style="fill:none;stroke:#000000;stroke-width:5;stroke-linecap:butt;stroke-linejoin:miter;stroke-miterlimit:4;stroke-opacity:1;stroke-dasharray:none" />
      <path
         sodipodi:nodetypes="cccc"
         inkscape:connector-curvature="0"
         id="path4064"
         d="m 458.64839,911.25134 c -0.84878,-22.92372 16.10035,-45.6093 36.88755,-59.67104 25.26259,5.82333 31.192,42.92557 31.46291,65.09568 z"
         style="fill:none;stroke:#000000;stroke-width:5;stroke-linecap:butt;stroke-linejoin:miter;stroke-miterlimit:4;stroke-opacity:1;stroke-dasharray:none" />
      <path
         sodipodi:nodetypes="ccccccccccccccccccc"
         inkscape:connector-curvature="0"
         id="path4066"
         d="m 482.5347,397.00569 c 243.91358,-5.04627 251.02715,152.96871 264.73777,177.55505 16.30245,62.72903 13.46724,123.33164 -14.88487,181.80786 -19.84647,33.31372 -49.98661,73.74181 -44.658,97.46265 17.01127,35.08572 37.26624,80.58567 23.03839,104.54609 -17.90217,30.15175 -41.33384,35.39016 -66.62631,30.83292 -16.48798,-2.37567 -30.18522,-9.28628 -49.46398,-7.12695 -34.91686,3.92625 -33.28611,32.57069 -47.28757,46.46539 -5.94175,4.3334 -13.76895,4.6161 -24.92523,4.1252 l -99.46962,-7.3147 c -12.05831,-2.1625 -21.74041,-8.4837 -21.26408,-25.51691 0.51472,-18.29618 -14.16758,-32.98481 -40.40175,-30.8329 l -59.53942,2.1264 c -25.87427,1.6638 -61.41873,-41.51435 -43.59135,-63.79224 0,0 28.48825,-28.9583 29.7697,-63.79223 0.35784,-27.65362 -14.17605,-44.65456 -21.26408,-66.98184 -25.99522,-52.89798 -50.20425,-101.40707 -43.59136,-164.79661 10.27765,-53.16019 23.74489,-104.19398 81.8667,-149.91175 48.55298,-30.12411 97.10596,-64.50103 177.55506,-64.85543 z"
         style="fill:none;stroke:#000000;stroke-width:5;stroke-linecap:butt;stroke-linejoin:miter;stroke-miterlimit:4;stroke-opacity:1;stroke-dasharray:none" />
      <path
         sodipodi:nodetypes="cccccccccc"
         inkscape:connector-curvature="0"
         id="path4068"
         d="M 257.41197,550.99397 166.0827,518.75503 103.89689,507.5641 c -15.017961,-5.81866 -25.969406,-6.36599 -41.880243,-39.573 -6.133304,-17.84819 -8.419003,-44.42978 22.766785,-45.23885 29.085668,-2.07915 38.157358,-23.61323 19.933868,-60.54499 -12.182394,-17.2196 1.95762,-39.69149 22.39507,-39.1111 33.48601,6.61389 51.66878,15.59753 64.05756,36.20118 l 30.89384,69.72343 c 11.52177,37.71946 55.49396,45.12812 72.04967,62.31138"
         style="fill:none;stroke:#000000;stroke-width:5;stroke-linecap:round;stroke-linejoin:miter;stroke-miterlimit:4;stroke-opacity:1;stroke-dasharray:none" />
      <path
         sodipodi:nodetypes="ccccccccccccccccc"
         inkscape:connector-curvature="0"
         id="path4072"
         d="m 289.34899,781.41953 -71.27836,52.84715 c -20.18882,14.42903 -34.63796,21.82407 -58.93907,24.20568 -14.34938,0.97546 -17.59713,-6.19689 -46.95365,4.42602 -21.616625,9.51824 -23.63579,19.03648 -31.092901,28.55471 -11.164781,17.15001 -12.845465,33.13625 -4.707018,43.46428 11.889047,15.26874 19.930124,29.64468 46.427819,17.48432 8.41372,-3.87185 10.29434,8.84336 13.24701,16.62506 2.85413,8.6185 2.57536,23.33777 3.09343,35.78545 3.81225,20.4774 4.68187,19.5544 11.56504,26.8863 14.21039,8.9558 37.11843,5.2583 41.10254,4.1145 10.60105,-1.799 15.26652,-15.8104 20.62284,-31.216 4.48765,-16.20977 5.39372,-30.32143 7.218,-35.72892 l 7.00829,-29.10722 2.39965,-16.63326 c 4.74921,-15.98901 22.86895,-32.38805 44.21146,-42.22388 l 29.9082,-6.83465"
         style="fill:none;stroke:#000000;stroke-width:5;stroke-linecap:round;stroke-linejoin:miter;stroke-miterlimit:4;stroke-opacity:1;stroke-dasharray:none" />
      <path
         sodipodi:nodetypes="cccscsccccccccccccc"
         inkscape:connector-curvature="0"
         id="path4076"
         d="m 712.53813,753.63905 47.3586,34.29213 33.09031,26.39993 c 0,0 13.37813,11.20455 33.81359,12.47666 7.8663,0.48969 42.27418,4.21614 38.87658,3.61643 0,0 49.65708,5.68291 55.15051,5.42464 7.98355,-0.37534 25.80707,5.99227 31.64371,9.04107 15.9881,8.7397 11.63287,23.80814 11.03014,27.48484 -3.32367,7.14596 -2.82439,13.9444 -10.84928,21.51773 l -29.11225,29.65471 c -6.03865,7.88404 -6.58893,16.89693 -9.04109,26.21909 l -5.42463,39.96155 c -3.83214,11.36877 -12.20783,19.61177 -24.41088,22.42187 -16.08825,2.8535 -35.40436,7.9666 -42.493,4.5205 -20.81519,-8.1213 -25.42586,-11.6035 -32.54784,-26.21911 -12.21331,-25.18205 -30.06817,-56.17217 -44.30123,-79.56139 l -28.02731,-33.63278 c -9.04106,-8.07668 -6.98953,-10.54532 -27.12319,-24.23005 l -44.66415,-18.00715"
         style="fill:none;stroke:#000000;stroke-width:5;stroke-linecap:round;stroke-linejoin:miter;stroke-miterlimit:4;stroke-opacity:1;stroke-dasharray:none" />
      <path
         sodipodi:nodetypes="cccccccccccc"
         inkscape:connector-curvature="0"
         id="path4101"
         d="m 717.28632,498.2074 c 20.81278,-9.64208 53.80453,-30.12528 70.38419,-49.64461 26.80968,-31.16036 37.0117,-41.00243 62.7631,-64.75487 28.22068,-20.34243 45.50586,-21.98863 70.90451,-18.69622 15.05104,5.9969 23.75244,16.57967 25.0459,31.7483 -1.64622,20.69519 -9.28932,45.97624 -4.23313,49.38625 9.99484,21.16553 22.10623,15.87415 37.74519,27.16243 16.86266,16.55356 15.52033,18.67303 11.99383,31.39555 -11.17069,21.04795 -28.69109,26.22174 -46.21143,28.22071 -22.34137,3.99793 -49.97417,-6.11449 -72.31554,2.46931 -35.84389,11.1728 -63.73477,17.50732 -87.13146,20.10726 -14.34362,1.41863 -27.01754,10.72305 -38.21382,18.73421"
         style="fill:none;stroke:#000000;stroke-width:5;stroke-linecap:round;stroke-linejoin:miter;stroke-miterlimit:4;stroke-opacity:1;stroke-dasharray:none" />
      <path
         transform="translate(0,308.2677)"
         inkscape:connector-curvature="0"
         id="path4131"
         d="m 255.98561,242.99423 37.78959,-60.8257"
         style="fill:none;stroke:#000000;stroke-width:5;stroke-linecap:butt;stroke-linejoin:miter;stroke-opacity:1;stroke-miterlimit:4;stroke-dasharray:10,5;stroke-dashoffset:0" />
      <path
         inkscape:connector-curvature="0"
         id="path4143"
         d="m 714.15186,500.39934 -14.64459,6.28917 28.43296,80.18094 16.49434,-8.99838"
         style="fill:none;stroke:#000000;stroke-width:5;stroke-linecap:butt;stroke-linejoin:miter;stroke-miterlimit:0;stroke-opacity:1;stroke-dasharray:10, 5;stroke-dashoffset:0" />
      <path
         inkscape:connector-curvature="0"
         id="path4145"
         d="m 666.48405,835.07595 46.87993,-81.35776"
         style="fill:none;stroke:#000000;stroke-width:5;stroke-linecap:butt;stroke-linejoin:miter;stroke-miterlimit:4;stroke-opacity:1;stroke-dasharray:10, 5;stroke-dashoffset:0" />
      <path
         sodipodi:nodetypes="cc"
         transform="translate(0,308.2677)"
         inkscape:connector-curvature="0"
         id="path4147"
         d="m 290.43805,472.44351 c 19.88722,29.95777 13.37098,61.94658 13.20173,94.44314"
         style="fill:none;stroke:#000000;stroke-width:5;stroke-linecap:butt;stroke-linejoin:miter;stroke-opacity:1;stroke-miterlimit:4;stroke-dasharray:10,5;stroke-dashoffset:0" />
    </g>
    <g
       transform="matrix(0.24563678,0,0,0.24563678,949.48262,796.32043)"
       id="layer1-0"
       inkscape:label="Layer 1">
      <rect
         y="688.86884"
         x="81.571411"
         height="164.38254"
         width="236.85719"
         id="rect2995"
         style="fill:#000000;fill-opacity:1;fill-rule:nonzero;stroke:none" />
      <text
         sodipodi:linespacing="125%"
         id="text2989"
         y="924.91956"
         x="199.99438"
         style="font-size:72px;font-style:normal;font-variant:normal;font-weight:normal;font-stretch:normal;text-align:center;line-height:125%;letter-spacing:0px;word-spacing:0px;text-anchor:middle;fill:#000000;fill-opacity:1;stroke:none;font-family:Ubuntu;-inkscape-font-specification:Ubuntu"
         xml:space="preserve"><tspan
           y="924.91956"
           x="199.99438"
           id="tspan2991"
           sodipodi:role="line">ateliê ana</tspan><tspan
           id="tspan2993"
           y="1014.9196"
           x="199.99438"
           sodipodi:role="line">canestraro</tspan></text>
      <g
         transform="translate(-79.450742,498.03091)"
         id="g3769">
        <text
           xml:space="preserve"
           style="font-size:144px;font-style:normal;font-variant:normal;font-weight:normal;font-stretch:normal;line-height:125%;letter-spacing:0px;word-spacing:0px;fill:#ffffff;fill-opacity:1;stroke:none;font-family:Ubuntu;-inkscape-font-specification:Ubuntu"
           x="170.06474"
           y="316.08517"
           id="text2985"
           sodipodi:linespacing="125%"><tspan
             sodipodi:role="line"
             id="tspan2987"
             x="170.06474"
             y="316.08517">a |c</tspan></text>
        <text
           xml:space="preserve"
           style="font-size:72px;font-style:normal;font-variant:normal;font-weight:normal;font-stretch:normal;line-height:125%;letter-spacing:0px;word-spacing:0px;fill:#ffffff;fill-opacity:1;stroke:none;font-family:Ubuntu;-inkscape-font-specification:Ubuntu"
           x="239.85849"
           y="244.44102"
           id="text3765"
           sodipodi:linespacing="125%"><tspan
             sodipodi:role="line"
             id="tspan3767"
             x="239.85849"
             y="244.44102">a</tspan></text>
      </g>
      <rect
         y="937.57983"
         x="12.902879"
         height="13.743362"
         width="374.19424"
         id="rect3775"
         style="fill:#000000;fill-opacity:1;fill-rule:nonzero;stroke:none" />
    </g>
    <text
       xml:space="preserve"
       style="font-size:56px;font-style:normal;font-variant:normal;font-weight:bold;font-stretch:normal;line-height:125%;letter-spacing:0px;word-spacing:0px;fill:#000000;fill-opacity:1;stroke:none;font-family:Ubuntu;-inkscape-font-specification:Sans Bold"
       x="426.57022"
       y="357.1637"
       id="text4695"
       sodipodi:linespacing="125%"><tspan
         sodipodi:role="line"
         id="tspan4697"
         x="426.57022"
         y="357.1637">Caveira</tspan></text>
  </g>
</svg>
