<?xml version="1.0" encoding="UTF-8" standalone="no"?>
<!-- Created with Inkscape (http://www.inkscape.org/) -->

<svg
   xmlns:dc="http://purl.org/dc/elements/1.1/"
   xmlns:cc="http://creativecommons.org/ns#"
   xmlns:rdf="http://www.w3.org/1999/02/22-rdf-syntax-ns#"
   xmlns:svg="http://www.w3.org/2000/svg"
   xmlns="http://www.w3.org/2000/svg"
   xmlns:sodipodi="http://sodipodi.sourceforge.net/DTD/sodipodi-0.dtd"
   xmlns:inkscape="http://www.inkscape.org/namespaces/inkscape"
   width="744.09448819"
   height="1052.3622047"
   id="svg2"
   version="1.1"
   inkscape:version="0.48.4 r9939"
   sodipodi:docname="flores_passaros.svg">
  <defs
     id="defs4" />
  <sodipodi:namedview
     id="base"
     pagecolor="#ffffff"
     bordercolor="#666666"
     borderopacity="1.0"
     inkscape:pageopacity="1"
     inkscape:pageshadow="2"
     inkscape:zoom="0.58820054"
     inkscape:cx="372.04724"
     inkscape:cy="526.18109"
     inkscape:document-units="px"
     inkscape:current-layer="layer1"
     showgrid="false"
     inkscape:window-width="1317"
     inkscape:window-height="744"
     inkscape:window-x="49"
     inkscape:window-y="24"
     inkscape:window-maximized="1" />
  <metadata
     id="metadata7">
    <rdf:RDF>
      <cc:Work
         rdf:about="">
        <dc:format>image/svg+xml</dc:format>
        <dc:type
           rdf:resource="http://purl.org/dc/dcmitype/StillImage" />
        <dc:title />
      </cc:Work>
    </rdf:RDF>
  </metadata>
  <g
     inkscape:label="Layer 1"
     inkscape:groupmode="layer"
     id="layer1">
    <g
       id="g4146">
      <g
         id="g4117">
        <rect
           style="fill:none;stroke:#000000;stroke-width:5;stroke-linecap:butt;stroke-linejoin:miter;stroke-miterlimit:4;stroke-opacity:1;stroke-dasharray:none;stroke-dashoffset:0"
           id="rect3128"
           width="308.10934"
           height="54.216663"
           x="389.74896"
           y="806.62518" />
        <path
           style="fill:none;stroke:#000000;stroke-width:5;stroke-linecap:butt;stroke-linejoin:miter;stroke-miterlimit:4;stroke-opacity:1;stroke-dashoffset:0;stroke-dasharray:none"
           d="m 667.39096,860.48233 -54.35174,183.74827 -140.3813,0.7308 -42.05097,-183.44817"
           id="rect3898"
           inkscape:connector-curvature="0"
           sodipodi:nodetypes="cccc" />
        <path
           style="fill:none;stroke:#000000;stroke-width:3;stroke-linecap:butt;stroke-linejoin:miter;stroke-miterlimit:4;stroke-opacity:1;stroke-dasharray:6,3;stroke-dashoffset:0"
           d="m 667.51134,860.31021 5.80193,-14.92112 -246.50907,-0.13547 4.13998,15.99163"
           id="path3901"
           inkscape:connector-curvature="0"
           sodipodi:nodetypes="cccc" />
        <path
           style="fill:none;stroke:#000000;stroke-width:5;stroke-linecap:butt;stroke-linejoin:miter;stroke-miterlimit:4;stroke-opacity:1;stroke-dasharray:none"
           d="m 540.4149,980.11849 c -13.84006,-17.25264 -48.77054,-23.55452 -53.68772,-46.28253 -3.33409,-14.36994 8.33849,-32.18736 24.06691,-37.02602 20.3305,-2.67231 20.78734,11.08166 31.58659,15.70991 7.31361,-14.16824 24.56407,-19.21081 32.28328,-17.56121 11.98706,0.94403 21.02304,11.27609 21.28996,23.14126 -3.48127,20.33052 -15.88542,22.81524 -28.69516,32.39778 -14.62615,9.46802 -17.89591,19.74722 -26.84386,29.62081 z"
           id="path3903"
           inkscape:connector-curvature="0"
           sodipodi:nodetypes="cccccccc" />
        <path
           sodipodi:type="arc"
           style="fill:none;stroke:#000000;stroke-width:10.24381228;stroke-linecap:butt;stroke-linejoin:miter;stroke-miterlimit:4;stroke-opacity:1;stroke-dasharray:none;stroke-dashoffset:0"
           id="path3905"
           sodipodi:cx="965.01984"
           sodipodi:cy="551.65924"
           sodipodi:rx="74.353989"
           sodipodi:ry="73.562988"
           d="m 1039.3738,551.65924 a 74.353989,73.562988 0 1 1 -7e-4,-0.32365"
           sodipodi:start="0"
           sodipodi:end="6.2787857"
           sodipodi:open="true"
           transform="matrix(0.46282519,0,0,0.51475408,114.76483,290.93544)" />
        <path
           style="fill:none;stroke:#000000;stroke-width:5;stroke-linecap:butt;stroke-linejoin:miter;stroke-miterlimit:4;stroke-opacity:1;stroke-dasharray:none"
           d="m 503.55736,605.86324 c -4.04266,-3.56554 -55.29769,15.9833 -54.9142,-49.05669 1.30807,-6.71647 -1.857,-46.06733 76.1477,-32.21632 0.23897,-32.04544 13.39614,-65.76644 52.71763,-61.50391 37.26341,6.36556 41.54635,49.50452 29.28759,60.03953 73.20349,-19.78852 82.50368,26.96537 82.00517,39.53822 -3.11856,26.15337 -11.40373,45.76357 -65.09761,39.90605 48.81265,33.19258 19.64068,72.14596 3.66095,77.61207 -20.63238,7.44878 -59.44792,4.22026 -65.23208,-26.72664 -6.95307,27.97731 -44.39746,44.15152 -71.02236,21.96567 -7.28125,-6.48195 -40.67202,-30.74321 12.44721,-69.55798 z"
           id="path3907"
           inkscape:connector-curvature="0"
           sodipodi:nodetypes="ccccccccccc" />
        <path
           style="fill:none;stroke:#000000;stroke-width:5;stroke-linecap:butt;stroke-linejoin:miter;stroke-miterlimit:4;stroke-opacity:1;stroke-dasharray:none"
           d="m 561.40032,766.17105 c 5.19617,-26.8942 10.56009,-47.41459 49.05671,-49.78887 55.06069,1.67019 78.91502,20.48555 111.29275,35.87728 -25.43373,16.41915 -37.30575,38.28934 -82.73741,45.39574 -23.03434,3.00869 -64.61375,5.61351 -77.61205,-31.48415 z"
           id="path3909"
           inkscape:connector-curvature="0"
           sodipodi:nodetypes="ccccc" />
        <path
           style="fill:none;stroke:#000000;stroke-width:5;stroke-linecap:butt;stroke-linejoin:miter;stroke-miterlimit:4;stroke-opacity:1;stroke-dasharray:none"
           d="m 554.81062,772.07022 c 4.04281,-21.58777 -1.66962,-51.81392 -39.67658,-71.68538 -32.73311,-16.84409 -70.38801,-17.54725 -108.95785,-16.90953 15.2837,44.67499 44.98224,79.24126 57.84295,88.59491 50.43056,39.90437 75.54543,23.17029 90.79148,0 z"
           id="path3911"
           inkscape:connector-curvature="0"
           sodipodi:nodetypes="ccccc" />
      </g>
    </g>
    <g
       id="g4004"
       transform="matrix(0.86602541,0.50000001,-0.50000001,0.86602541,-1190.4237,-2194.9528)">
      <path
         sodipodi:nodetypes="cccccccccccc"
         inkscape:connector-curvature="0"
         id="path3957"
         d="m 2769.7288,1309.194 c 35.8123,6.17 29.5218,1.6613 53.7455,9.493 46.198,-42.8484 70.642,-36.3946 100.8556,-59.7858 9.4709,41.1621 19.2462,82.7114 25.4387,122.7807 -14.519,-3.3326 -69.8648,2.7747 -120.9133,-6.6396 -14.3492,35.5921 -43.4032,78.7644 -111.7006,90.9374 -39.3408,6.8612 -86.2482,-5.6162 -118.1745,-40.3506 -23.6866,-28.5649 -26.7898,-45.9805 -27.32,-75.4031 -26.241,20.9846 -88.3645,26.9881 -121.6051,-37.7777 -16.0277,-55.0042 13.0537,-98.0569 33.8768,-119.1151 24.3503,-19.638 67.4996,-24.0741 112.5583,4.3712 31.6749,32.2049 24.9451,45.2045 40.1126,62.6576"
         style="fill:none;stroke:#000000;stroke-width:5;stroke-linecap:butt;stroke-linejoin:miter;stroke-miterlimit:4;stroke-opacity:1;stroke-dasharray:none" />
      <path
         sodipodi:nodetypes="ccccc"
         inkscape:connector-curvature="0"
         id="path3963"
         d="m 2631.4598,1333.2115 c 15.7952,60.4372 75.0156,35.4037 101.6303,18.5776 57.2764,-46.7401 72.6145,-111.8517 66.7297,-206.6912 -23.313,5.464 -49.9737,15.4513 -85.3075,36.2145 -35.3338,20.7632 -105.6372,73.2176 -83.0527,152.9919"
         style="fill:none;stroke:#000000;stroke-width:5;stroke-linecap:butt;stroke-linejoin:miter;stroke-miterlimit:4;stroke-opacity:1;stroke-dasharray:none" />
      <path
         sodipodi:nodetypes="ccc"
         inkscape:connector-curvature="0"
         id="path3965"
         d="m 2582.8634,1189.4088 c -5.0997,-42.9835 34.0257,-72.2072 50.782,-87.8707 31.6912,32.4197 36.0623,68.1178 43.7119,108.1871"
         style="fill:none;stroke:#000000;stroke-width:5;stroke-linecap:butt;stroke-linejoin:miter;stroke-miterlimit:4;stroke-opacity:1;stroke-dasharray:none" />
      <path
         sodipodi:nodetypes="csc"
         inkscape:connector-curvature="0"
         id="path3967"
         d="m 2455.5191,1326.6547 c 6.46,-20.995 -9.0402,45.4997 -8.7424,61.1967 0.1057,5.5712 12.264,-3.2053 50.905,-28.966"
         style="fill:none;stroke:#000000;stroke-width:5;stroke-linecap:butt;stroke-linejoin:miter;stroke-miterlimit:4;stroke-opacity:1;stroke-dasharray:none" />
      <path
         sodipodi:nodetypes="cccccc"
         inkscape:connector-curvature="0"
         id="path3990"
         d="m 2582.4862,1190.0948 -2.5195,22.6755 c 21.3846,2.6751 33.7017,29.8334 45.3509,62.9874 l 15.8389,6.9059 c 11.8906,-22.3503 20.3825,-47.193 39.0704,-55.4954 l -2.8396,-18.5971"
         style="fill:none;stroke:#000000;stroke-width:3;stroke-linecap:butt;stroke-linejoin:miter;stroke-miterlimit:4;stroke-opacity:1;stroke-dasharray:6, 3;stroke-dashoffset:0" />
      <path
         sodipodi:nodetypes="cccc"
         inkscape:connector-curvature="0"
         id="path3992"
         d="m 2457.0603,1325.3689 3.2043,-21.1484 c 16.0215,13.2444 23.0709,44.433 57.6774,39.7333 l -19.2258,15.3807"
         style="fill:none;stroke:#000000;stroke-width:3;stroke-linecap:butt;stroke-linejoin:miter;stroke-miterlimit:4;stroke-opacity:1;stroke-dasharray:6, 3;stroke-dashoffset:0" />
      <path
         sodipodi:open="true"
         sodipodi:end="6.2787857"
         sodipodi:start="0"
         d="m 2520.5396,1259.0941 c 0,4.3914 -2.2249,7.9512 -4.9695,7.9512 -2.7446,0 -4.9695,-3.5598 -4.9695,-7.9512 0,-4.3913 2.2249,-7.9512 4.9695,-7.9512 2.736,0 4.9574,3.5386 4.9694,7.9162"
         sodipodi:ry="7.9512291"
         sodipodi:rx="4.9695182"
         sodipodi:cy="1259.0941"
         sodipodi:cx="2515.5701"
         id="path4002"
         style="fill:#090000;fill-opacity:1;fill-rule:nonzero;stroke:#000000;stroke-width:3;stroke-linecap:round;stroke-linejoin:miter;stroke-miterlimit:4;stroke-opacity:1;stroke-dasharray:6, 3;stroke-dashoffset:0"
         sodipodi:type="arc" />
    </g>
    <g
       id="g4112"
       transform="translate(6.8004018,5.1003014)">
      <path
         sodipodi:nodetypes="ccccccc"
         inkscape:connector-curvature="0"
         id="path4022"
         d="m 28.852143,372.55285 c -43.701597,204.78548 95.637017,248.06489 159.606067,238.14229 79.16966,0 218.50827,-117.80442 74.10279,-283.11064 -24.48984,8.65588 -47.0796,26.17877 -63.96915,46.86843 -11.4004,-21.32303 -28.50109,-38.8459 -53.20199,-46.86843 -31.86915,22.64642 -43.7624,46.01028 -51.935231,63.96907 C 71.920498,378.88642 53.553042,371.9195 28.852143,372.55285 z"
         style="fill:none;stroke:#000000;stroke-width:5;stroke-linecap:butt;stroke-linejoin:miter;stroke-miterlimit:4;stroke-opacity:1;stroke-dasharray:none" />
      <path
         sodipodi:nodetypes="ccccccc"
         inkscape:connector-curvature="0"
         id="path4022-9"
         d="M 40.595243,395.64839 C 25.39474,587.13337 129.25562,593.17226 188.16749,585.65553 c 61.43562,-8.867 160.2395,-82.33642 67.13592,-236.87556 -24.48985,8.65588 -36.31254,31.24562 -53.20209,51.93528 -11.4004,-21.32302 -29.76786,-43.91276 -54.46876,-51.93528 -31.86914,22.64641 -34.262,47.91035 -42.43483,65.86913 C 83.663599,401.98196 65.296142,395.01503 40.595243,395.64839 z"
         style="fill:none;stroke:#000000;stroke-width:5;stroke-linecap:butt;stroke-linejoin:miter;stroke-miterlimit:4;stroke-opacity:1;stroke-dasharray:none" />
      <path
         sodipodi:nodetypes="ccccccc"
         inkscape:connector-curvature="0"
         id="path4022-9-6"
         d="m 54.812831,417.20845 c 4.132855,153.44177 86.165719,147.00748 131.357029,145.72734 27.70729,-4.31645 110.99901,-18.65179 71.50158,-187.60649 -24.48985,8.65588 -40.6782,28.75098 -55.69675,52.55894 -11.4004,-21.32303 -24.15487,-46.40739 -48.85576,-54.42992 -31.86915,22.64642 -29.27278,46.66304 -37.44561,64.62182 C 94.139193,425.413 79.51373,416.57509 54.812831,417.20845 z"
         style="fill:none;stroke:#000000;stroke-width:5;stroke-linecap:butt;stroke-linejoin:miter;stroke-miterlimit:4;stroke-opacity:1;stroke-dasharray:none" />
    </g>
    <g
       id="g4136">
      <path
         sodipodi:nodetypes="ccc"
         inkscape:connector-curvature="0"
         id="path3915"
         d="m 307.35987,706.285 c 16.9798,0.85977 31.9214,6.46806 46.766,11.59832 l -31.5577,35.81835"
         style="fill:none;stroke:#000000;stroke-width:5;stroke-linecap:round;stroke-linejoin:miter;stroke-miterlimit:4;stroke-opacity:1;stroke-dasharray:none" />
      <path
         inkscape:connector-curvature="0"
         id="path3935"
         d="m 140.24257,987.40197 -1.3889,33.33343 0.5556,3.0555 z"
         style="fill:none;stroke:#000000;stroke-width:2;stroke-linecap:butt;stroke-linejoin:miter;stroke-miterlimit:4;stroke-opacity:1;stroke-dasharray:none" />
      <path
         inkscape:connector-curvature="0"
         id="path3937"
         d="m 182.54527,983.61517 -1.1112,39.65713 z"
         style="fill:none;stroke:#000000;stroke-width:2.15471339;stroke-linecap:butt;stroke-linejoin:miter;stroke-miterlimit:4;stroke-opacity:1;stroke-dasharray:none" />
      <path
         inkscape:connector-curvature="0"
         id="path3939"
         d="M 141.51457,1007.0512 z"
         style="fill:none;stroke:#000000;stroke-width:2;stroke-linecap:butt;stroke-linejoin:miter;stroke-miterlimit:4;stroke-opacity:1;stroke-dasharray:none" />
      <path
         sodipodi:nodetypes="cccc"
         inkscape:connector-curvature="0"
         id="path3951"
         d="m 107.34787,903.99565 c 48.3333,-28.75 -7.998096,-130.58764 107.5,-120 66.0762,24.53803 51.2446,77.54988 5,110 -43.7581,27.41451 -82.5,24.16667 -112.5,10 z"
         style="fill:none;stroke:#000000;stroke-width:5;stroke-linecap:butt;stroke-linejoin:miter;stroke-miterlimit:4;stroke-opacity:1;stroke-dasharray:none" />
      <path
         sodipodi:nodetypes="cscscc"
         inkscape:connector-curvature="0"
         id="path3953"
         d="m 16.888272,839.07182 c 82.591102,7.35309 95.453098,-36.63412 102.406398,-92.90323 9.3321,-75.51943 37.6546,-112.60133 134.4658,-91.97264 56.2606,19.39546 78.6823,98.42164 65.2018,161.97272 -13.4806,63.55108 -53.7846,124.00713 -94.914,146.70395 -16.2317,13.20545 -155.438796,96.56468 -207.159998,-123.8008 z"
         style="fill:none;stroke:#000000;stroke-width:5;stroke-linecap:butt;stroke-linejoin:miter;stroke-miterlimit:4;stroke-opacity:1;stroke-dasharray:none" />
      <path
         transform="translate(-3127.6522,-33.36653)"
         sodipodi:open="true"
         sodipodi:end="6.2787857"
         sodipodi:start="0"
         d="m 3368.7013,746.34698 a 7.6028614,8.8700047 0 1 1 -1e-4,-0.039"
         sodipodi:ry="8.8700047"
         sodipodi:rx="7.6028614"
         sodipodi:cy="746.34698"
         sodipodi:cx="3361.0984"
         id="path3955"
         style="fill:#090000;fill-opacity:1;fill-rule:nonzero;stroke:#000000;stroke-width:5;stroke-linecap:round;stroke-linejoin:miter;stroke-miterlimit:4;stroke-opacity:1;stroke-dasharray:none;stroke-dashoffset:0"
         sodipodi:type="arc" />
      <path
         sodipodi:nodetypes="cccc"
         inkscape:connector-curvature="0"
         id="path4127"
         d="m 310.39669,706.01293 -19.95273,-1.31763 c 14.32442,21.5734 16.08598,41.81523 18.82333,62.30522 l 13.92926,-12.9881"
         style="fill:none;stroke:#000000;stroke-width:3;stroke-linecap:butt;stroke-linejoin:miter;stroke-miterlimit:4;stroke-opacity:1;stroke-dasharray:6, 3;stroke-dashoffset:0" />
    </g>
    <g
       transform="matrix(0.2513015,0,0,0.2513015,2.7574872,-167.11377)"
       id="layer1-8"
       inkscape:label="Layer 1">
      <rect
         y="688.86884"
         x="81.571411"
         height="164.38254"
         width="236.85719"
         id="rect2995"
         style="fill:#000000;fill-opacity:1;fill-rule:nonzero;stroke:none" />
      <text
         sodipodi:linespacing="125%"
         id="text2989"
         y="924.91956"
         x="199.99438"
         style="font-size:72px;font-style:normal;font-variant:normal;font-weight:normal;font-stretch:normal;text-align:center;line-height:125%;letter-spacing:0px;word-spacing:0px;text-anchor:middle;fill:#000000;fill-opacity:1;stroke:none;font-family:Ubuntu;-inkscape-font-specification:Ubuntu"
         xml:space="preserve"><tspan
           y="924.91956"
           x="199.99438"
           id="tspan2991"
           sodipodi:role="line">ateliê ana</tspan><tspan
           id="tspan2993"
           y="1014.9196"
           x="199.99438"
           sodipodi:role="line">canestraro</tspan></text>
      <g
         transform="translate(-79.450742,498.03091)"
         id="g3769">
        <text
           xml:space="preserve"
           style="font-size:144px;font-style:normal;font-variant:normal;font-weight:normal;font-stretch:normal;line-height:125%;letter-spacing:0px;word-spacing:0px;fill:#ffffff;fill-opacity:1;stroke:none;font-family:Ubuntu;-inkscape-font-specification:Ubuntu"
           x="170.06474"
           y="316.08517"
           id="text2985"
           sodipodi:linespacing="125%"><tspan
             sodipodi:role="line"
             id="tspan2987"
             x="170.06474"
             y="316.08517">a |c</tspan></text>
        <text
           xml:space="preserve"
           style="font-size:72px;font-style:normal;font-variant:normal;font-weight:normal;font-stretch:normal;line-height:125%;letter-spacing:0px;word-spacing:0px;fill:#ffffff;fill-opacity:1;stroke:none;font-family:Ubuntu;-inkscape-font-specification:Ubuntu"
           x="239.85849"
           y="244.44102"
           id="text3765"
           sodipodi:linespacing="125%"><tspan
             sodipodi:role="line"
             id="tspan3767"
             x="239.85849"
             y="244.44102">a</tspan></text>
      </g>
      <rect
         y="937.57983"
         x="12.902879"
         height="13.743362"
         width="374.19424"
         id="rect3775"
         style="fill:#000000;fill-opacity:1;fill-rule:nonzero;stroke:none" />
    </g>
    <text
       xml:space="preserve"
       style="font-size:56px;font-style:normal;font-variant:normal;font-weight:bold;font-stretch:normal;line-height:125%;letter-spacing:0px;word-spacing:0px;fill:#000000;fill-opacity:1;stroke:none;font-family:Ubuntu;-inkscape-font-specification:Sans Bold"
       x="140.64868"
       y="50.743999"
       id="text4451"
       sodipodi:linespacing="125%"><tspan
         sodipodi:role="line"
         id="tspan4453"
         x="140.64868"
         y="50.743999">Flores e pássaros</tspan></text>
  </g>
</svg>
