<?xml version="1.0" encoding="UTF-8" standalone="no"?>
<!-- Created with Inkscape (http://www.inkscape.org/) -->

<svg
   xmlns:dc="http://purl.org/dc/elements/1.1/"
   xmlns:cc="http://creativecommons.org/ns#"
   xmlns:rdf="http://www.w3.org/1999/02/22-rdf-syntax-ns#"
   xmlns:svg="http://www.w3.org/2000/svg"
   xmlns="http://www.w3.org/2000/svg"
   xmlns:sodipodi="http://sodipodi.sourceforge.net/DTD/sodipodi-0.dtd"
   xmlns:inkscape="http://www.inkscape.org/namespaces/inkscape"
   width="744.09448819"
   height="1052.3622047"
   id="svg2"
   version="1.1"
   inkscape:version="0.48.4 r9939"
   sodipodi:docname="tilda.svg">
  <defs
     id="defs4" />
  <sodipodi:namedview
     id="base"
     pagecolor="#ffffff"
     bordercolor="#666666"
     borderopacity="1.0"
     inkscape:pageopacity="0.0"
     inkscape:pageshadow="2"
     inkscape:zoom="0.57299665"
     inkscape:cx="168.73017"
     inkscape:cy="526.18109"
     inkscape:document-units="px"
     inkscape:current-layer="layer1"
     showgrid="false"
     inkscape:window-width="1317"
     inkscape:window-height="744"
     inkscape:window-x="49"
     inkscape:window-y="24"
     inkscape:window-maximized="1" />
  <metadata
     id="metadata7">
    <rdf:RDF>
      <cc:Work
         rdf:about="">
        <dc:format>image/svg+xml</dc:format>
        <dc:type
           rdf:resource="http://purl.org/dc/dcmitype/StillImage" />
        <dc:title />
      </cc:Work>
    </rdf:RDF>
  </metadata>
  <g
     inkscape:label="Layer 1"
     inkscape:groupmode="layer"
     id="layer1">
    <path
       style="fill:none;stroke:#000000;stroke-width:5;stroke-linecap:round;stroke-linejoin:miter;stroke-miterlimit:4;stroke-opacity:1;stroke-dasharray:none"
       d="m 338.84919,59.4284 c 2.2653,-16.539101 9.00459,-33.510017 28.86142,-41.582531 16.24648,-5.063904 31.51606,-3.721235 40.38615,2.215752 10.95606,6.555227 16.60281,15.602302 17.55613,29.880806 0.94151,22.700255 -1.29547,35.454401 -8.94089,49.942933 -13.59656,23.71492 -19.12295,43.83366 -20.94699,67.6831 -0.63241,23.08252 4.08698,39.82219 10.0806,45.80873 20.06793,18.85539 31.00854,11.34702 45.27782,13.606 18.81383,2.52959 23.68896,8.59165 26.69521,17.89592 3.4782,18.65574 -2.05529,38.73437 -3.32009,55.01862 -3.32009,27.35122 -11.85746,53.27953 -17.54904,74.46487 9.96026,31.9361 17.54904,74.30676 20.39484,95.334 11.54127,43.95166 16.91664,87.90332 21.81773,131.855 7.11448,44.74215 14.22896,79.99831 21.34343,119.9975 -0.9486,19.9205 -4.74299,32.25231 -18.49764,35.57241 -29.56461,5.05913 -57.23202,7.27251 -85.84803,6.64013 -38.41817,-0.15803 -75.88775,-1.73902 -115.25454,-7.58873 -18.81384,-3.63634 -37.62767,-3.47823 -56.44152,-10.90893 -14.54515,-4.11061 -21.50153,-10.11835 -20.86913,-26.56064 9.01167,-53.75387 22.76632,-118.89085 39.84107,-178.33626 12.17366,-47.74605 20.07864,-99.76079 29.40651,-144.66104 -8.85357,-35.0981 -18.18145,-77.78497 -23.71492,-119.52323 -0.97323,-11.00625 -0.0458,-27.36431 9.48597,-36.52099 7.27258,-7.11447 9.80216,-10.90886 26.56071,-10.90886 19.60434,-0.9486 30.39522,-4.82085 43.16117,-18.49764 5.90631,-7.70677 9.25,-22.65542 6.16588,-45.05836 -6.16588,-32.41039 -17.5986,-60.41052 -15.65185,-105.76856 z"
       id="path3066"
       inkscape:connector-curvature="0"
       sodipodi:nodetypes="ccccccccccccccccccccccccccc" />
    <path
       style="fill:none;stroke:#000000;stroke-width:5;stroke-linecap:butt;stroke-linejoin:miter;stroke-miterlimit:4;stroke-opacity:1;stroke-dasharray:none"
       d="m 331.3775,223.70168 0,26.41546 c 27.45613,-4.19128 54.56267,-4.88643 83.41725,-2.08542 l 2.12717,-25.33826"
       id="path3836"
       inkscape:connector-curvature="0"
       sodipodi:nodetypes="cccc" />
    <path
       style="fill:none;stroke:#000000;stroke-width:5;stroke-linecap:butt;stroke-linejoin:miter;stroke-miterlimit:4;stroke-opacity:1;stroke-dasharray:none"
       d="m 270.20485,277.92289 c 16.22002,4.58685 32.17632,5.218 48.66006,3.47572 l 0.69515,55.6115 c 39.87919,-7.19201 75.80266,-7 113.30843,-4.17086 l 6.25629,-50.7455 c 12.7763,2.006 25.5526,1.37487 37.53777,-3.47571"
       id="path3838"
       inkscape:connector-curvature="0"
       sodipodi:nodetypes="cccccc" />
    <path
       style="fill:none;stroke:#000000;stroke-width:5;stroke-linecap:butt;stroke-linejoin:miter;stroke-miterlimit:4;stroke-opacity:1;stroke-dasharray:none"
       d="m 339.10928,72.807686 c 32.2663,-24.629421 62.70323,-21.620588 86.62781,-3.846236"
       id="path3840"
       inkscape:connector-curvature="0"
       sodipodi:nodetypes="cc" />
    <path
       sodipodi:type="arc"
       style="fill:none;stroke:#000000;stroke-width:6.98488297;stroke-linecap:round;stroke-miterlimit:4;stroke-opacity:1;stroke-dasharray:none"
       id="path3842"
       sodipodi:cx="406.75"
       sodipodi:cy="237.86218"
       sodipodi:rx="47.75"
       sodipodi:ry="46.599194"
       d="M 454.45589,235.85956 A 47.75,46.599194 0 1 1 401.39157,191.55733"
       transform="matrix(-0.40978777,-0.54964784,0.57420688,-0.48025669,476.43297,405.90578)"
       sodipodi:start="6.2401966"
       sodipodi:end="10.883119"
       sodipodi:open="true" />
    <path
       sodipodi:type="arc"
       style="fill:none;stroke:#000000;stroke-width:5.99505181;stroke-linecap:round;stroke-miterlimit:4;stroke-opacity:1;stroke-dasharray:none"
       id="path3844"
       sodipodi:cx="190"
       sodipodi:cy="244.86218"
       sodipodi:rx="45"
       sodipodi:ry="49.5"
       d="M 235,244.86218 A 45,49.5 0 1 1 188.65472,195.38431"
       transform="matrix(0.59547457,0.64338634,-0.5823201,0.53895581,343.27473,-182.05225)"
       sodipodi:start="0"
       sodipodi:end="4.6824894"
       sodipodi:open="true" />
    <path
       style="fill:none;stroke:#000000;stroke-width:5;stroke-linecap:butt;stroke-linejoin:miter;stroke-miterlimit:4;stroke-opacity:1;stroke-dasharray:none"
       d="m 235.46686,743.26447 -10.41327,49.46308 c 93.70414,36.26799 247.36412,32.85294 273.34835,18.2232 l -4.00198,-51.83169"
       id="path3858"
       inkscape:connector-curvature="0"
       sodipodi:nodetypes="cccc" />
    <path
       style="fill:none;stroke:#000000;stroke-width:3;stroke-linecap:butt;stroke-linejoin:miter;stroke-miterlimit:4;stroke-opacity:1;stroke-dasharray:6,3;stroke-dashoffset:0"
       d="m 235.83427,741.81755 5.11321,-14.15966 c 80.89359,21.63281 173.19359,22.41948 252.12057,11.79976 l 1.57329,19.27282"
       id="path3860"
       inkscape:connector-curvature="0"
       sodipodi:nodetypes="cccc" />
    <path
       style="fill:none;stroke:#000000;stroke-width:5;stroke-linecap:butt;stroke-linejoin:miter;stroke-miterlimit:4;stroke-opacity:1;stroke-dasharray:none"
       d="m 309.89856,814.30605 1.72684,187.01215 c 1.01254,12.371 10.07623,23.3042 19.28366,22.4483 8.32306,-0.5847 13.54191,-5.5097 18.99613,-12.8053 7.69916,8.6385 13.61657,12.1809 22.8803,11.3684 8.57553,-1.2193 15.84234,-5.4324 16.98093,-14.8213 l 9.92817,-186.64557"
       id="path3862"
       inkscape:connector-curvature="0"
       sodipodi:nodetypes="ccccccc" />
    <path
       style="fill:none;stroke:#000000;stroke-width:5;stroke-linecap:butt;stroke-linejoin:miter;stroke-miterlimit:4;stroke-opacity:1;stroke-dasharray:none"
       d="m 350.19271,1011.2496 6.3307,-191.25024"
       id="path3864"
       inkscape:connector-curvature="0"
       sodipodi:nodetypes="cc" />
    <path
       style="fill:none;stroke:#000000;stroke-width:3;stroke-linecap:butt;stroke-linejoin:miter;stroke-miterlimit:4;stroke-opacity:1;stroke-dasharray:6,3;stroke-dashoffset:0"
       d="m 310.10695,814.13072 0.6881,-14.96599 c 29.75998,4.30051 61.06817,8.4291 89.79602,5.16073 l -0.17202,18.23437"
       id="path3866"
       inkscape:connector-curvature="0"
       sodipodi:nodetypes="cccc" />
    <path
       style="fill:none;stroke:#000000;stroke-width:2.08543134;stroke-linecap:butt;stroke-linejoin:miter;stroke-miterlimit:4;stroke-opacity:1;stroke-dasharray:2.08543121, 2.08543121;stroke-dashoffset:0"
       d="m 356.38116,803.80934 0.68809,19.61062"
       id="path3868"
       inkscape:connector-curvature="0"
       sodipodi:nodetypes="cc" />
    <path
       style="fill:none;stroke:#000000;stroke-width:3;stroke-linecap:butt;stroke-linejoin:miter;stroke-miterlimit:4;stroke-opacity:1;stroke-dasharray:6,3;stroke-dashoffset:0"
       d="m 319.27119,336.29487 -9.9313,3.97251 -3.47595,-57.60148"
       id="path3870"
       inkscape:connector-curvature="0" />
    <path
       style="fill:none;stroke:#000000;stroke-width:3;stroke-linecap:butt;stroke-linejoin:miter;stroke-miterlimit:4;stroke-opacity:1;stroke-dasharray:6,3;stroke-dashoffset:0"
       d="m 433.48105,332.81892 10.92443,2.48281 6.9519,-51.14614"
       id="path3872"
       inkscape:connector-curvature="0" />
    <path
       style="fill:none;stroke:#000000;stroke-width:3;stroke-linecap:butt;stroke-linejoin:miter;stroke-miterlimit:4;stroke-opacity:1;stroke-dasharray:6,3;stroke-dashoffset:0"
       d="m 320.26432,228.04378 0.29563,31.69121 c 37.26814,-7.95738 70.17921,-6.01229 103.48637,-2.48283 l 4.46909,-30.69808"
       id="path3874"
       inkscape:connector-curvature="0"
       sodipodi:nodetypes="cccc" />
    <path
       style="fill:none;stroke:#000000;stroke-width:3;stroke-linecap:butt;stroke-linejoin:miter;stroke-miterlimit:4;stroke-opacity:1;stroke-dasharray:6,3;stroke-dashoffset:0"
       d="m 318.97934,281.51142 -0.39611,-12.67512 c -17.43409,1.38221 -32.04187,3.12097 -47.53173,-2.3766"
       id="path3876"
       inkscape:connector-curvature="0"
       sodipodi:nodetypes="ccc" />
    <path
       style="fill:none;stroke:#000000;stroke-width:3;stroke-linecap:butt;stroke-linejoin:miter;stroke-miterlimit:4;stroke-opacity:1;stroke-dasharray:6,3;stroke-dashoffset:0"
       d="m 438.99698,283.09581 1.58439,-15.84391 c 11.68868,4.0308 26.68836,0.28185 37.62928,-1.9805"
       id="path3878"
       inkscape:connector-curvature="0"
       sodipodi:nodetypes="ccc" />
    <path
       style="fill:none;stroke:#000000;stroke-width:5;stroke-linecap:butt;stroke-linejoin:miter;stroke-miterlimit:4;stroke-opacity:1;stroke-dasharray:none"
       d="m 293.95424,395.20332 30.89957,73.93826 c 0.0127,16.58629 2.07533,32.1477 7.72488,47.45292 5.1234,9.89998 13.06516,14.16322 22.03177,12.02106 9.27276,-3.32205 11.74358,-7.86509 14.93736,-16.98707 0.4505,-9.32736 -3.26794,-11.92649 -7.17311,-18.76045 -18.15359,-37.37341 -31.92661,-86.10745 -42.83333,-154.64238"
       id="path3880"
       inkscape:connector-curvature="0"
       sodipodi:nodetypes="ccccccc" />
    <path
       style="fill:none;stroke:#000000;stroke-width:5;stroke-linecap:butt;stroke-linejoin:miter;stroke-miterlimit:4;stroke-opacity:1;stroke-dasharray:none"
       d="m 433.00231,333.40418 c -2.72146,30.6888 -10.80525,54.0653 -19.86402,78.90426 l -30.34779,70.07582 c -5.72824,9.74807 -8.63812,19.49615 -11.03557,29.24423 -1.05139,12.59299 -0.37805,20.8998 6.06956,23.17468 12.00826,5.11647 18.37979,0.83037 23.72645,-10.48379 3.1625,-8.08001 5.05631,-15.39888 6.62136,-21.51934 7.78115,-38.73372 35.78336,-76.68655 48.55646,-127.46074"
       id="path3882"
       inkscape:connector-curvature="0"
       sodipodi:nodetypes="cccccccc" />
    <path
       style="fill:none;stroke:#000000;stroke-width:5;stroke-linecap:butt;stroke-linejoin:miter;stroke-miterlimit:4;stroke-opacity:1;stroke-dasharray:none"
       d="m 402.56143,206.96918 c 37.30467,-48.24737 72.74788,-64.09244 111.91401,-64.16403 48.74638,1.94812 68.47479,30.34113 85.55204,50.73435 24.37239,26.19617 51.22878,34.49202 75.10821,30.33521 38.99278,-7.79549 59.36377,-1.15466 60.68078,18.90696 -0.65973,23.3845 -9.61038,35.15373 -21.8854,40.78643 -24.31996,10.15395 -43.62676,15.78675 -80.57809,2.48699 -26.85935,30.50693 -55.7083,31.66752 -88.03901,13.92707 -19.89582,16.91144 -46.03013,25.29045 -72.39209,17.82952"
       id="path3884"
       inkscape:connector-curvature="0"
       sodipodi:nodetypes="ccccccccc" />
    <path
       style="fill:none;stroke:#000000;stroke-width:3;stroke-linecap:butt;stroke-linejoin:miter;stroke-miterlimit:4;stroke-opacity:1;stroke-dasharray:6,3;stroke-dashoffset:0"
       d="m 400.88232,208.18782 -7.98203,9.31238 2.66068,99.11029 76.08342,0.97219"
       id="path3888"
       inkscape:connector-curvature="0"
       sodipodi:nodetypes="cccc" />
    <path
       style="fill:none;stroke:#000000;stroke-width:5;stroke-linecap:butt;stroke-linejoin:miter;stroke-miterlimit:4;stroke-opacity:1;stroke-dasharray:none"
       d="m 347.50744,209.35457 c -37.30467,-48.24737 -72.74787,-64.09244 -111.91401,-64.16402 -48.74637,1.94811 -68.47478,30.34113 -85.55203,50.73435 -24.37239,26.19616 -51.228784,34.49201 -75.108215,30.3352 -38.992781,-7.7955 -59.363773,-1.15466 -60.680779,18.90696 0.65974,23.3845 9.61039,35.15373 21.885405,40.78643 24.319958,10.15395 43.626755,15.78674 80.578089,2.48698 26.85936,30.50693 55.7083,31.66752 88.03901,13.92708 19.89582,16.91145 46.03013,25.29045 72.39209,17.82952"
       id="path3884-9"
       inkscape:connector-curvature="0"
       sodipodi:nodetypes="ccccccccc" />
    <path
       style="fill:none;stroke:#000000;stroke-width:3;stroke-linecap:butt;stroke-linejoin:miter;stroke-miterlimit:4;stroke-opacity:1;stroke-dasharray:6,3;stroke-dashoffset:0"
       d="m 349.18655,210.57321 7.98204,9.31238 -2.66069,99.11028 -78.14294,1.55945"
       id="path3888-2"
       inkscape:connector-curvature="0"
       sodipodi:nodetypes="cccc" />
    <path
       style="fill:none;stroke:#000000;stroke-width:3;stroke-linecap:butt;stroke-linejoin:miter;stroke-miterlimit:4;stroke-opacity:1;stroke-dasharray:6,3;stroke-dashoffset:0"
       d="m 340.57462,101.45427 8.6175,-5.405851 c -5.55764,-13.467283 -4.33731,-30.261939 1.07305,-45.577772 l -8.78432,-6.411269"
       id="path3920"
       inkscape:connector-curvature="0"
       sodipodi:nodetypes="cccc" />
    <path
       style="fill:none;stroke:#000000;stroke-width:3;stroke-linecap:butt;stroke-linejoin:miter;stroke-miterlimit:4;stroke-opacity:1;stroke-dasharray:6,3;stroke-dashoffset:0"
       d="m 425.76072,43.153145 -9.23368,6.57057 c 2.78434,12.754926 1.50188,27.974572 -3.10795,36.416235 l 8.11253,7.76237"
       id="path3922"
       inkscape:connector-curvature="0"
       sodipodi:nodetypes="cccc" />
    <path
       sodipodi:type="arc"
       style="fill:#000000;fill-opacity:1;stroke:none"
       id="path3924"
       sodipodi:cx="190.22632"
       sodipodi:cy="224.37712"
       sodipodi:rx="6.5792561"
       sodipodi:ry="5.8641195"
       d="m 196.80557,224.37712 a 6.5792561,5.8641195 0 1 1 0,-9e-5 l -6.57925,9e-5 z"
       sodipodi:start="0"
       sodipodi:end="6.283169"
       transform="matrix(0.37817307,0,0,0.75441468,301.1312,-89.45608)" />
    <path
       sodipodi:type="arc"
       style="fill:#000000;fill-opacity:1;stroke:none"
       id="path3924-9"
       sodipodi:cx="190.22632"
       sodipodi:cy="224.37712"
       sodipodi:rx="6.5792561"
       sodipodi:ry="5.8641195"
       d="m 196.80557,224.37712 a 6.5792561,5.8641195 0 1 1 0,-9e-5 l -6.57925,9e-5 z"
       sodipodi:start="0"
       sodipodi:end="6.283169"
       transform="matrix(0.37817307,0,0,0.75441468,318.70004,-89.466463)" />
    <g
       transform="matrix(0.43100212,0,0,0.43100212,567.2548,604.52628)"
       id="layer1-6"
       inkscape:label="Layer 1">
      <rect
         y="688.86884"
         x="81.571411"
         height="164.38254"
         width="236.85719"
         id="rect2995"
         style="fill:#000000;fill-opacity:1;fill-rule:nonzero;stroke:none" />
      <text
         sodipodi:linespacing="125%"
         id="text2989"
         y="924.91956"
         x="199.99438"
         style="font-size:72px;font-style:normal;font-variant:normal;font-weight:normal;font-stretch:normal;text-align:center;line-height:125%;letter-spacing:0px;word-spacing:0px;text-anchor:middle;fill:#000000;fill-opacity:1;stroke:none;font-family:Ubuntu;-inkscape-font-specification:Ubuntu"
         xml:space="preserve"><tspan
           y="924.91956"
           x="199.99438"
           id="tspan2991"
           sodipodi:role="line">ateliê ana</tspan><tspan
           id="tspan2993"
           y="1014.9196"
           x="199.99438"
           sodipodi:role="line">canestraro</tspan></text>
      <g
         transform="translate(-79.450742,498.03091)"
         id="g3769">
        <text
           xml:space="preserve"
           style="font-size:144px;font-style:normal;font-variant:normal;font-weight:normal;font-stretch:normal;line-height:125%;letter-spacing:0px;word-spacing:0px;fill:#ffffff;fill-opacity:1;stroke:none;font-family:Ubuntu;-inkscape-font-specification:Ubuntu"
           x="170.06474"
           y="316.08517"
           id="text2985"
           sodipodi:linespacing="125%"><tspan
             sodipodi:role="line"
             id="tspan2987"
             x="170.06474"
             y="316.08517">a |c</tspan></text>
        <text
           xml:space="preserve"
           style="font-size:72px;font-style:normal;font-variant:normal;font-weight:normal;font-stretch:normal;line-height:125%;letter-spacing:0px;word-spacing:0px;fill:#ffffff;fill-opacity:1;stroke:none;font-family:Ubuntu;-inkscape-font-specification:Ubuntu"
           x="239.85849"
           y="244.44102"
           id="text3765"
           sodipodi:linespacing="125%"><tspan
             sodipodi:role="line"
             id="tspan3767"
             x="239.85849"
             y="244.44102">a</tspan></text>
      </g>
      <rect
         y="937.57983"
         x="12.902879"
         height="13.743362"
         width="374.19424"
         id="rect3775"
         style="fill:#000000;fill-opacity:1;fill-rule:nonzero;stroke:none" />
    </g>
    <text
       xml:space="preserve"
       style="font-size:56px;font-style:normal;font-variant:normal;font-weight:500;font-stretch:normal;line-height:125%;letter-spacing:0px;word-spacing:0px;fill:#000000;fill-opacity:1;stroke:none;font-family:Ubuntu;-inkscape-font-specification:Ubuntu Medium"
       x="13.961685"
       y="54.101547"
       id="text3274"
       sodipodi:linespacing="125%"><tspan
         sodipodi:role="line"
         id="tspan3276"
         x="13.961685"
         y="54.101547"
         style="font-weight:500;-inkscape-font-specification:Ubuntu Medium" /></text>
    <text
       xml:space="preserve"
       style="font-size:56px;font-style:normal;font-variant:normal;font-weight:bold;font-stretch:normal;line-height:125%;letter-spacing:0px;word-spacing:0px;fill:#000000;fill-opacity:1;stroke:none;font-family:Ubuntu;-inkscape-font-specification:Sans Bold"
       x="8.8800001"
       y="53.456001"
       id="text3370"
       sodipodi:linespacing="125%"><tspan
         sodipodi:role="line"
         id="tspan3372"
         x="8.8800001"
         y="53.456001">Tilda</tspan></text>
  </g>
</svg>
